<mxfile host="app.diagrams.net" modified="2023-10-01T23:11:11.451Z" agent="Mozilla/5.0 (Windows NT 10.0; Win64; x64) AppleWebKit/537.36 (KHTML, like Gecko) Chrome/117.0.0.0 Safari/537.36" etag="zUPpmKz8tBRdLFpd_fPa" version="22.0.0" type="google">
  <diagram name="Página-1" id="psqRhZIrhIHAhzSFvJle">
    <mxGraphModel grid="1" page="1" gridSize="10" guides="1" tooltips="1" connect="1" arrows="1" fold="1" pageScale="1" pageWidth="827" pageHeight="1169" math="0" shadow="0">
      <root>
        <mxCell id="0" />
        <mxCell id="1" parent="0" />
        <mxCell id="H7zgwniXcIy4q0j4ltjJ-13" style="edgeStyle=orthogonalEdgeStyle;rounded=0;orthogonalLoop=1;jettySize=auto;html=1;" edge="1" parent="1" source="H7zgwniXcIy4q0j4ltjJ-12" target="H7zgwniXcIy4q0j4ltjJ-9">
          <mxGeometry relative="1" as="geometry" />
        </mxCell>
        <mxCell id="H7zgwniXcIy4q0j4ltjJ-9" value="Streamlit&lt;br&gt;&lt;br&gt;&lt;br&gt;&lt;br&gt;&lt;br&gt;&lt;br&gt;" style="rounded=0;whiteSpace=wrap;html=1;" vertex="1" parent="1">
          <mxGeometry x="200" y="80" width="160" height="120" as="geometry" />
        </mxCell>
        <mxCell id="BCzQsVzvlVJKyDwNN25u-61" value="AWS Cloud" style="sketch=0;outlineConnect=0;gradientColor=none;html=1;whiteSpace=wrap;fontSize=12;fontStyle=0;shape=mxgraph.aws4.group;grIcon=mxgraph.aws4.group_aws_cloud;strokeColor=#AAB7B8;fillColor=none;verticalAlign=top;align=left;spacingLeft=30;fontColor=#AAB7B8;dashed=0;" vertex="1" parent="1">
          <mxGeometry x="80" y="280" width="400" height="280" as="geometry" />
        </mxCell>
        <mxCell id="BCzQsVzvlVJKyDwNN25u-74" value="web del colegio" style="ellipse;shape=cloud;whiteSpace=wrap;html=1;" vertex="1" parent="1">
          <mxGeometry x="520" y="375" width="120" height="90" as="geometry" />
        </mxCell>
        <mxCell id="BCzQsVzvlVJKyDwNN25u-5" value="Django o&lt;span style=&quot;white-space: pre;&quot;&gt;&#x9;&lt;/span&gt;&lt;span style=&quot;white-space: pre;&quot;&gt;&#x9;&lt;/span&gt;&lt;span style=&quot;white-space: pre;&quot;&gt;&#x9;&lt;/span&gt;&lt;br&gt;&lt;br&gt;&lt;br&gt;&lt;br&gt;&lt;br&gt;&lt;br&gt;" style="rounded=0;whiteSpace=wrap;html=1;" vertex="1" parent="1">
          <mxGeometry x="240" y="360" width="120" height="120" as="geometry" />
        </mxCell>
        <mxCell id="BCzQsVzvlVJKyDwNN25u-2" value="Cloud Service Provider" style="text;html=1;strokeColor=none;fillColor=none;align=center;verticalAlign=middle;whiteSpace=wrap;rounded=0;" vertex="1" parent="1">
          <mxGeometry x="-40" y="240" width="60" height="30" as="geometry" />
        </mxCell>
        <mxCell id="BCzQsVzvlVJKyDwNN25u-60" style="edgeStyle=orthogonalEdgeStyle;rounded=0;orthogonalLoop=1;jettySize=auto;html=1;startArrow=classic;startFill=1;" edge="1" parent="1" source="BCzQsVzvlVJKyDwNN25u-3" target="BCzQsVzvlVJKyDwNN25u-5">
          <mxGeometry relative="1" as="geometry" />
        </mxCell>
        <mxCell id="BCzQsVzvlVJKyDwNN25u-3" value="React" style="rounded=0;whiteSpace=wrap;html=1;" vertex="1" parent="1">
          <mxGeometry x="120" y="310" width="80" height="40" as="geometry" />
        </mxCell>
        <mxCell id="BCzQsVzvlVJKyDwNN25u-66" style="edgeStyle=orthogonalEdgeStyle;rounded=0;orthogonalLoop=1;jettySize=auto;html=1;entryX=1;entryY=0.75;entryDx=0;entryDy=0;startArrow=classic;startFill=1;" edge="1" parent="1" source="BCzQsVzvlVJKyDwNN25u-4" target="BCzQsVzvlVJKyDwNN25u-62">
          <mxGeometry relative="1" as="geometry" />
        </mxCell>
        <mxCell id="BCzQsVzvlVJKyDwNN25u-4" value="postgres" style="shape=cylinder3;whiteSpace=wrap;html=1;boundedLbl=1;backgroundOutline=1;size=15;" vertex="1" parent="1">
          <mxGeometry x="400" y="440" width="40" height="80" as="geometry" />
        </mxCell>
        <mxCell id="BCzQsVzvlVJKyDwNN25u-6" value="&lt;h1&gt;Propuesta&lt;/h1&gt;&lt;p&gt;&lt;/p&gt;&lt;ul&gt;&lt;li&gt;&lt;b&gt;backend&lt;/b&gt;: Django usa Python, lo que facilitaria la integracion con LangChain&lt;/li&gt;&lt;li&gt;&lt;b&gt;DB&lt;/b&gt;: Se recomienda Postgres por se open source, escalable y con mucha documentacion. Se almacenara la informacion de los cursos, estudiantes, profesores etc.&lt;/li&gt;&lt;li&gt;&lt;b&gt;frontend web&lt;/b&gt;: El frontend se puede hacer con react si es que lo que se busca es un rapido desarrollo&lt;/li&gt;&lt;li&gt;&lt;b&gt;frontent movil&lt;/b&gt;:&lt;/li&gt;&lt;/ul&gt;&lt;p&gt;&lt;/p&gt;" style="text;html=1;strokeColor=none;fillColor=none;spacing=5;spacingTop=-20;whiteSpace=wrap;overflow=hidden;rounded=0;" vertex="1" parent="1">
          <mxGeometry x="-330" y="300" width="230" height="270" as="geometry" />
        </mxCell>
        <mxCell id="BCzQsVzvlVJKyDwNN25u-11" value="N" style="edgeStyle=orthogonalEdgeStyle;rounded=0;orthogonalLoop=1;jettySize=auto;html=1;endArrow=none;endFill=0;" edge="1" parent="1" source="BCzQsVzvlVJKyDwNN25u-8" target="BCzQsVzvlVJKyDwNN25u-9">
          <mxGeometry relative="1" as="geometry" />
        </mxCell>
        <mxCell id="BCzQsVzvlVJKyDwNN25u-38" value="N" style="edgeStyle=orthogonalEdgeStyle;rounded=0;orthogonalLoop=1;jettySize=auto;html=1;endArrow=none;endFill=0;" edge="1" parent="1" source="BCzQsVzvlVJKyDwNN25u-8" target="BCzQsVzvlVJKyDwNN25u-37">
          <mxGeometry relative="1" as="geometry" />
        </mxCell>
        <mxCell id="BCzQsVzvlVJKyDwNN25u-8" value="ESTUDIANTE" style="rounded=0;whiteSpace=wrap;html=1;fillColor=#f8cecc;strokeColor=#b85450;" vertex="1" parent="1">
          <mxGeometry x="240" y="680" width="120" height="40" as="geometry" />
        </mxCell>
        <mxCell id="BCzQsVzvlVJKyDwNN25u-12" value="N" style="edgeStyle=orthogonalEdgeStyle;rounded=0;orthogonalLoop=1;jettySize=auto;html=1;endArrow=none;endFill=0;" edge="1" parent="1" source="BCzQsVzvlVJKyDwNN25u-9" target="BCzQsVzvlVJKyDwNN25u-10">
          <mxGeometry relative="1" as="geometry" />
        </mxCell>
        <mxCell id="BCzQsVzvlVJKyDwNN25u-9" value="LLEVAR" style="rhombus;whiteSpace=wrap;html=1;" vertex="1" parent="1">
          <mxGeometry x="540" y="680" width="80" height="40" as="geometry" />
        </mxCell>
        <mxCell id="BCzQsVzvlVJKyDwNN25u-10" value="CURSO" style="rounded=0;whiteSpace=wrap;html=1;strokeColor=#82b366;fillColor=#d5e8d4;" vertex="1" parent="1">
          <mxGeometry x="520" y="840" width="120" height="40" as="geometry" />
        </mxCell>
        <mxCell id="BCzQsVzvlVJKyDwNN25u-20" style="rounded=0;orthogonalLoop=1;jettySize=auto;html=1;endArrow=none;endFill=0;" edge="1" parent="1" source="BCzQsVzvlVJKyDwNN25u-13" target="BCzQsVzvlVJKyDwNN25u-8">
          <mxGeometry relative="1" as="geometry" />
        </mxCell>
        <mxCell id="BCzQsVzvlVJKyDwNN25u-13" value="nombre" style="ellipse;whiteSpace=wrap;html=1;" vertex="1" parent="1">
          <mxGeometry x="120" y="680" width="80" height="20" as="geometry" />
        </mxCell>
        <mxCell id="BCzQsVzvlVJKyDwNN25u-14" value="link" style="ellipse;whiteSpace=wrap;html=1;" vertex="1" parent="1">
          <mxGeometry x="680" y="910" width="80" height="20" as="geometry" />
        </mxCell>
        <mxCell id="BCzQsVzvlVJKyDwNN25u-15" value="direccion" style="ellipse;whiteSpace=wrap;html=1;" vertex="1" parent="1">
          <mxGeometry x="120" y="710" width="80" height="20" as="geometry" />
        </mxCell>
        <mxCell id="BCzQsVzvlVJKyDwNN25u-16" value="PROFESOR" style="rounded=0;whiteSpace=wrap;html=1;fillColor=#d5e8d4;strokeColor=#82b366;" vertex="1" parent="1">
          <mxGeometry x="520" y="1040" width="120" height="40" as="geometry" />
        </mxCell>
        <mxCell id="BCzQsVzvlVJKyDwNN25u-18" value="1" style="edgeStyle=orthogonalEdgeStyle;rounded=0;orthogonalLoop=1;jettySize=auto;html=1;endArrow=none;endFill=0;" edge="1" parent="1" source="BCzQsVzvlVJKyDwNN25u-17" target="BCzQsVzvlVJKyDwNN25u-10">
          <mxGeometry relative="1" as="geometry" />
        </mxCell>
        <mxCell id="BCzQsVzvlVJKyDwNN25u-17" value="ENSEÑAR" style="rhombus;whiteSpace=wrap;html=1;" vertex="1" parent="1">
          <mxGeometry x="540" y="940" width="80" height="40" as="geometry" />
        </mxCell>
        <mxCell id="BCzQsVzvlVJKyDwNN25u-19" value="1...4" style="edgeStyle=orthogonalEdgeStyle;rounded=0;orthogonalLoop=1;jettySize=auto;html=1;endArrow=none;endFill=0;" edge="1" parent="1" source="BCzQsVzvlVJKyDwNN25u-16" target="BCzQsVzvlVJKyDwNN25u-17">
          <mxGeometry relative="1" as="geometry" />
        </mxCell>
        <mxCell id="BCzQsVzvlVJKyDwNN25u-21" style="rounded=0;orthogonalLoop=1;jettySize=auto;html=1;endArrow=none;endFill=0;" edge="1" parent="1" source="BCzQsVzvlVJKyDwNN25u-10" target="BCzQsVzvlVJKyDwNN25u-23">
          <mxGeometry relative="1" as="geometry">
            <mxPoint x="210" y="755" as="sourcePoint" />
            <mxPoint x="331" y="760" as="targetPoint" />
          </mxGeometry>
        </mxCell>
        <mxCell id="BCzQsVzvlVJKyDwNN25u-22" style="rounded=0;orthogonalLoop=1;jettySize=auto;html=1;endArrow=none;endFill=0;" edge="1" parent="1" source="BCzQsVzvlVJKyDwNN25u-14" target="BCzQsVzvlVJKyDwNN25u-10">
          <mxGeometry relative="1" as="geometry">
            <mxPoint x="179" y="712" as="sourcePoint" />
            <mxPoint x="300" y="717" as="targetPoint" />
          </mxGeometry>
        </mxCell>
        <mxCell id="BCzQsVzvlVJKyDwNN25u-23" value="nombre" style="ellipse;whiteSpace=wrap;html=1;" vertex="1" parent="1">
          <mxGeometry x="680" y="820" width="80" height="20" as="geometry" />
        </mxCell>
        <mxCell id="BCzQsVzvlVJKyDwNN25u-24" style="rounded=0;orthogonalLoop=1;jettySize=auto;html=1;endArrow=none;endFill=0;" edge="1" parent="1" source="BCzQsVzvlVJKyDwNN25u-15" target="BCzQsVzvlVJKyDwNN25u-8">
          <mxGeometry relative="1" as="geometry">
            <mxPoint x="169" y="702" as="sourcePoint" />
            <mxPoint x="290" y="707" as="targetPoint" />
          </mxGeometry>
        </mxCell>
        <mxCell id="BCzQsVzvlVJKyDwNN25u-26" value="tipo" style="ellipse;whiteSpace=wrap;html=1;" vertex="1" parent="1">
          <mxGeometry x="680" y="850" width="80" height="20" as="geometry" />
        </mxCell>
        <mxCell id="BCzQsVzvlVJKyDwNN25u-28" style="rounded=0;orthogonalLoop=1;jettySize=auto;html=1;endArrow=none;endFill=0;" edge="1" parent="1" source="BCzQsVzvlVJKyDwNN25u-10" target="BCzQsVzvlVJKyDwNN25u-26">
          <mxGeometry relative="1" as="geometry">
            <mxPoint x="650" y="803" as="sourcePoint" />
            <mxPoint x="700" y="813" as="targetPoint" />
          </mxGeometry>
        </mxCell>
        <mxCell id="BCzQsVzvlVJKyDwNN25u-42" value="N" style="edgeStyle=orthogonalEdgeStyle;rounded=0;orthogonalLoop=1;jettySize=auto;html=1;endArrow=none;endFill=0;" edge="1" parent="1" source="BCzQsVzvlVJKyDwNN25u-30" target="BCzQsVzvlVJKyDwNN25u-40">
          <mxGeometry relative="1" as="geometry" />
        </mxCell>
        <mxCell id="BCzQsVzvlVJKyDwNN25u-30" value="HORARIO" style="rounded=0;whiteSpace=wrap;html=1;strokeColor=#82b366;fillColor=#d5e8d4;" vertex="1" parent="1">
          <mxGeometry x="240" y="840" width="120" height="40" as="geometry" />
        </mxCell>
        <mxCell id="BCzQsVzvlVJKyDwNN25u-31" value="cupos disponibles" style="ellipse;whiteSpace=wrap;html=1;" vertex="1" parent="1">
          <mxGeometry x="120" y="820" width="80" height="20" as="geometry" />
        </mxCell>
        <mxCell id="BCzQsVzvlVJKyDwNN25u-32" style="rounded=0;orthogonalLoop=1;jettySize=auto;html=1;endArrow=none;endFill=0;" edge="1" parent="1" source="BCzQsVzvlVJKyDwNN25u-31" target="BCzQsVzvlVJKyDwNN25u-30">
          <mxGeometry relative="1" as="geometry">
            <mxPoint x="229" y="718" as="sourcePoint" />
            <mxPoint x="290" y="714" as="targetPoint" />
          </mxGeometry>
        </mxCell>
        <mxCell id="BCzQsVzvlVJKyDwNN25u-34" value="1" style="edgeStyle=orthogonalEdgeStyle;rounded=0;orthogonalLoop=1;jettySize=auto;html=1;endArrow=none;endFill=0;" edge="1" parent="1" source="BCzQsVzvlVJKyDwNN25u-33" target="BCzQsVzvlVJKyDwNN25u-10">
          <mxGeometry relative="1" as="geometry" />
        </mxCell>
        <mxCell id="BCzQsVzvlVJKyDwNN25u-35" value="N" style="edgeStyle=orthogonalEdgeStyle;rounded=0;orthogonalLoop=1;jettySize=auto;html=1;endArrow=none;endFill=0;" edge="1" parent="1" source="BCzQsVzvlVJKyDwNN25u-33" target="BCzQsVzvlVJKyDwNN25u-30">
          <mxGeometry relative="1" as="geometry" />
        </mxCell>
        <mxCell id="BCzQsVzvlVJKyDwNN25u-33" value="TIENE" style="rhombus;whiteSpace=wrap;html=1;" vertex="1" parent="1">
          <mxGeometry x="400" y="840" width="80" height="40" as="geometry" />
        </mxCell>
        <mxCell id="BCzQsVzvlVJKyDwNN25u-39" value="N" style="edgeStyle=orthogonalEdgeStyle;rounded=0;orthogonalLoop=1;jettySize=auto;html=1;endArrow=none;endFill=0;" edge="1" parent="1" source="BCzQsVzvlVJKyDwNN25u-37" target="BCzQsVzvlVJKyDwNN25u-30">
          <mxGeometry relative="1" as="geometry" />
        </mxCell>
        <mxCell id="BCzQsVzvlVJKyDwNN25u-37" value="MATRICULADO" style="rhombus;whiteSpace=wrap;html=1;" vertex="1" parent="1">
          <mxGeometry x="260" y="760" width="80" height="40" as="geometry" />
        </mxCell>
        <mxCell id="BCzQsVzvlVJKyDwNN25u-41" value="1" style="edgeStyle=orthogonalEdgeStyle;rounded=0;orthogonalLoop=1;jettySize=auto;html=1;endArrow=none;endFill=0;" edge="1" parent="1" source="BCzQsVzvlVJKyDwNN25u-40" target="BCzQsVzvlVJKyDwNN25u-16">
          <mxGeometry relative="1" as="geometry" />
        </mxCell>
        <mxCell id="BCzQsVzvlVJKyDwNN25u-40" value="ENSEÑAR" style="rhombus;whiteSpace=wrap;html=1;" vertex="1" parent="1">
          <mxGeometry x="260" y="1040" width="80" height="40" as="geometry" />
        </mxCell>
        <mxCell id="BCzQsVzvlVJKyDwNN25u-44" style="rounded=0;orthogonalLoop=1;jettySize=auto;html=1;endArrow=none;endFill=0;" edge="1" parent="1" source="BCzQsVzvlVJKyDwNN25u-43" target="BCzQsVzvlVJKyDwNN25u-16">
          <mxGeometry relative="1" as="geometry" />
        </mxCell>
        <mxCell id="BCzQsVzvlVJKyDwNN25u-43" value="nombre" style="ellipse;whiteSpace=wrap;html=1;" vertex="1" parent="1">
          <mxGeometry x="680" y="1010" width="80" height="20" as="geometry" />
        </mxCell>
        <mxCell id="BCzQsVzvlVJKyDwNN25u-45" value="direccion" style="ellipse;whiteSpace=wrap;html=1;" vertex="1" parent="1">
          <mxGeometry x="680" y="1040" width="80" height="20" as="geometry" />
        </mxCell>
        <mxCell id="BCzQsVzvlVJKyDwNN25u-46" value="numero" style="ellipse;whiteSpace=wrap;html=1;" vertex="1" parent="1">
          <mxGeometry x="680" y="1070" width="80" height="20" as="geometry" />
        </mxCell>
        <mxCell id="BCzQsVzvlVJKyDwNN25u-47" style="rounded=0;orthogonalLoop=1;jettySize=auto;html=1;endArrow=none;endFill=0;" edge="1" parent="1" source="BCzQsVzvlVJKyDwNN25u-45" target="BCzQsVzvlVJKyDwNN25u-16">
          <mxGeometry relative="1" as="geometry">
            <mxPoint x="513" y="1090" as="sourcePoint" />
            <mxPoint x="484" y="1050" as="targetPoint" />
          </mxGeometry>
        </mxCell>
        <mxCell id="BCzQsVzvlVJKyDwNN25u-48" style="rounded=0;orthogonalLoop=1;jettySize=auto;html=1;endArrow=none;endFill=0;" edge="1" parent="1" source="BCzQsVzvlVJKyDwNN25u-46" target="BCzQsVzvlVJKyDwNN25u-16">
          <mxGeometry relative="1" as="geometry">
            <mxPoint x="515" y="1120" as="sourcePoint" />
            <mxPoint x="480" y="1050" as="targetPoint" />
          </mxGeometry>
        </mxCell>
        <mxCell id="BCzQsVzvlVJKyDwNN25u-53" style="rounded=0;orthogonalLoop=1;jettySize=auto;html=1;endArrow=none;endFill=0;" edge="1" parent="1" source="BCzQsVzvlVJKyDwNN25u-50" target="BCzQsVzvlVJKyDwNN25u-10">
          <mxGeometry relative="1" as="geometry" />
        </mxCell>
        <mxCell id="BCzQsVzvlVJKyDwNN25u-50" value="costo" style="ellipse;whiteSpace=wrap;html=1;" vertex="1" parent="1">
          <mxGeometry x="680" y="790" width="80" height="20" as="geometry" />
        </mxCell>
        <mxCell id="BCzQsVzvlVJKyDwNN25u-52" style="rounded=0;orthogonalLoop=1;jettySize=auto;html=1;endArrow=none;endFill=0;" edge="1" parent="1" source="BCzQsVzvlVJKyDwNN25u-51" target="BCzQsVzvlVJKyDwNN25u-10">
          <mxGeometry relative="1" as="geometry" />
        </mxCell>
        <mxCell id="BCzQsVzvlVJKyDwNN25u-51" value="objetivo" style="ellipse;whiteSpace=wrap;html=1;" vertex="1" parent="1">
          <mxGeometry x="680" y="880" width="80" height="20" as="geometry" />
        </mxCell>
        <mxCell id="BCzQsVzvlVJKyDwNN25u-54" value="hora de inicio" style="ellipse;whiteSpace=wrap;html=1;" vertex="1" parent="1">
          <mxGeometry x="120" y="850" width="80" height="20" as="geometry" />
        </mxCell>
        <mxCell id="BCzQsVzvlVJKyDwNN25u-55" style="rounded=0;orthogonalLoop=1;jettySize=auto;html=1;endArrow=none;endFill=0;" edge="1" parent="1" source="BCzQsVzvlVJKyDwNN25u-54" target="BCzQsVzvlVJKyDwNN25u-30">
          <mxGeometry relative="1" as="geometry">
            <mxPoint x="229" y="748" as="sourcePoint" />
            <mxPoint x="220" y="930" as="targetPoint" />
          </mxGeometry>
        </mxCell>
        <mxCell id="BCzQsVzvlVJKyDwNN25u-56" value="hora de salida" style="ellipse;whiteSpace=wrap;html=1;" vertex="1" parent="1">
          <mxGeometry x="120" y="880" width="80" height="20" as="geometry" />
        </mxCell>
        <mxCell id="BCzQsVzvlVJKyDwNN25u-57" style="rounded=0;orthogonalLoop=1;jettySize=auto;html=1;endArrow=none;endFill=0;" edge="1" parent="1" source="BCzQsVzvlVJKyDwNN25u-56" target="BCzQsVzvlVJKyDwNN25u-30">
          <mxGeometry relative="1" as="geometry">
            <mxPoint x="229" y="788" as="sourcePoint" />
            <mxPoint x="240" y="953" as="targetPoint" />
          </mxGeometry>
        </mxCell>
        <mxCell id="BCzQsVzvlVJKyDwNN25u-58" value="experiencia" style="ellipse;whiteSpace=wrap;html=1;" vertex="1" parent="1">
          <mxGeometry x="680" y="1100" width="80" height="20" as="geometry" />
        </mxCell>
        <mxCell id="BCzQsVzvlVJKyDwNN25u-59" style="rounded=0;orthogonalLoop=1;jettySize=auto;html=1;endArrow=none;endFill=0;" edge="1" parent="1" source="BCzQsVzvlVJKyDwNN25u-58" target="BCzQsVzvlVJKyDwNN25u-16">
          <mxGeometry relative="1" as="geometry">
            <mxPoint x="562" y="1150" as="sourcePoint" />
            <mxPoint x="485" y="1050" as="targetPoint" />
          </mxGeometry>
        </mxCell>
        <mxCell id="BCzQsVzvlVJKyDwNN25u-65" style="edgeStyle=orthogonalEdgeStyle;rounded=0;orthogonalLoop=1;jettySize=auto;html=1;startArrow=classic;startFill=1;" edge="1" parent="1" source="BCzQsVzvlVJKyDwNN25u-62" target="BCzQsVzvlVJKyDwNN25u-74">
          <mxGeometry relative="1" as="geometry">
            <mxPoint x="560.0526315789475" y="280" as="targetPoint" />
          </mxGeometry>
        </mxCell>
        <mxCell id="BCzQsVzvlVJKyDwNN25u-62" value="langchain" style="rounded=0;whiteSpace=wrap;html=1;" vertex="1" parent="1">
          <mxGeometry x="260" y="400" width="80" height="40" as="geometry" />
        </mxCell>
        <mxCell id="BCzQsVzvlVJKyDwNN25u-64" value="" style="sketch=0;points=[[0,0,0],[0.25,0,0],[0.5,0,0],[0.75,0,0],[1,0,0],[0,1,0],[0.25,1,0],[0.5,1,0],[0.75,1,0],[1,1,0],[0,0.25,0],[0,0.5,0],[0,0.75,0],[1,0.25,0],[1,0.5,0],[1,0.75,0]];outlineConnect=0;fontColor=#232F3E;fillColor=#ED7100;strokeColor=#ffffff;dashed=0;verticalLabelPosition=bottom;verticalAlign=top;align=center;html=1;fontSize=12;fontStyle=0;aspect=fixed;shape=mxgraph.aws4.resourceIcon;resIcon=mxgraph.aws4.lambda;" vertex="1" parent="1">
          <mxGeometry x="300" y="370" width="23" height="23" as="geometry" />
        </mxCell>
        <mxCell id="BCzQsVzvlVJKyDwNN25u-67" value="React native" style="rounded=0;whiteSpace=wrap;html=1;" vertex="1" parent="1">
          <mxGeometry x="120" y="487" width="80" height="40" as="geometry" />
        </mxCell>
        <mxCell id="BCzQsVzvlVJKyDwNN25u-68" style="edgeStyle=orthogonalEdgeStyle;rounded=0;orthogonalLoop=1;jettySize=auto;html=1;startArrow=classic;startFill=1;" edge="1" parent="1" source="BCzQsVzvlVJKyDwNN25u-67" target="BCzQsVzvlVJKyDwNN25u-5">
          <mxGeometry relative="1" as="geometry">
            <mxPoint x="170" y="390" as="sourcePoint" />
            <mxPoint x="250" y="430" as="targetPoint" />
          </mxGeometry>
        </mxCell>
        <mxCell id="BCzQsVzvlVJKyDwNN25u-73" style="edgeStyle=orthogonalEdgeStyle;rounded=0;orthogonalLoop=1;jettySize=auto;html=1;" edge="1" parent="1" source="BCzQsVzvlVJKyDwNN25u-70" target="BCzQsVzvlVJKyDwNN25u-67">
          <mxGeometry relative="1" as="geometry" />
        </mxCell>
        <mxCell id="BCzQsVzvlVJKyDwNN25u-70" value="" style="shape=image;html=1;verticalAlign=top;verticalLabelPosition=bottom;labelBackgroundColor=#ffffff;imageAspect=0;aspect=fixed;image=https://cdn1.iconfinder.com/data/icons/material-core/24/settings-cell-128.png" vertex="1" parent="1">
          <mxGeometry x="8" y="480" width="54" height="54" as="geometry" />
        </mxCell>
        <mxCell id="BCzQsVzvlVJKyDwNN25u-72" style="edgeStyle=orthogonalEdgeStyle;rounded=0;orthogonalLoop=1;jettySize=auto;html=1;" edge="1" parent="1" source="BCzQsVzvlVJKyDwNN25u-71" target="BCzQsVzvlVJKyDwNN25u-3">
          <mxGeometry relative="1" as="geometry" />
        </mxCell>
        <mxCell id="BCzQsVzvlVJKyDwNN25u-71" value="computadora de estudiante" style="sketch=0;aspect=fixed;pointerEvents=1;shadow=0;dashed=0;html=1;strokeColor=none;labelPosition=center;verticalLabelPosition=bottom;verticalAlign=top;align=center;fillColor=#00188D;shape=mxgraph.azure.computer" vertex="1" parent="1">
          <mxGeometry x="-50" y="307.5" width="50" height="45" as="geometry" />
        </mxCell>
        <mxCell id="H7zgwniXcIy4q0j4ltjJ-5" style="rounded=0;orthogonalLoop=1;jettySize=auto;html=1;endArrow=none;endFill=0;" edge="1" parent="1" source="H7zgwniXcIy4q0j4ltjJ-6" target="BCzQsVzvlVJKyDwNN25u-9">
          <mxGeometry relative="1" as="geometry">
            <mxPoint x="627" y="690" as="targetPoint" />
          </mxGeometry>
        </mxCell>
        <mxCell id="H7zgwniXcIy4q0j4ltjJ-6" value="notas" style="ellipse;whiteSpace=wrap;html=1;" vertex="1" parent="1">
          <mxGeometry x="640" y="680" width="80" height="20" as="geometry" />
        </mxCell>
        <mxCell id="H7zgwniXcIy4q0j4ltjJ-7" value="Langchain" style="rounded=0;whiteSpace=wrap;html=1;" vertex="1" parent="1">
          <mxGeometry x="240" y="120" width="80" height="40" as="geometry" />
        </mxCell>
        <mxCell id="H7zgwniXcIy4q0j4ltjJ-11" value="CI/CD" style="edgeStyle=orthogonalEdgeStyle;rounded=0;orthogonalLoop=1;jettySize=auto;html=1;" edge="1" parent="1" source="H7zgwniXcIy4q0j4ltjJ-10" target="H7zgwniXcIy4q0j4ltjJ-9">
          <mxGeometry relative="1" as="geometry" />
        </mxCell>
        <mxCell id="H7zgwniXcIy4q0j4ltjJ-10" value="Github" style="rounded=0;whiteSpace=wrap;html=1;" vertex="1" parent="1">
          <mxGeometry x="40" y="120" width="80" height="40" as="geometry" />
        </mxCell>
        <mxCell id="H7zgwniXcIy4q0j4ltjJ-12" value="&lt;br&gt;&lt;br&gt;&lt;br&gt;&lt;br&gt;&lt;br&gt;&lt;br&gt;&lt;br&gt;&lt;br&gt;&lt;br&gt;estudiante" style="shape=actor;whiteSpace=wrap;html=1;" vertex="1" parent="1">
          <mxGeometry x="400" y="95" width="80" height="90" as="geometry" />
        </mxCell>
        <mxCell id="H7zgwniXcIy4q0j4ltjJ-14" value="&lt;h1&gt;Despliegue actual&lt;/h1&gt;&lt;p&gt;Lorem ipsum dolor sit amet, consectetur adipisicing elit, sed do eiusmod tempor incididunt ut labore et dolore magna aliqua.&lt;/p&gt;" style="text;html=1;strokeColor=none;fillColor=none;spacing=5;spacingTop=-20;whiteSpace=wrap;overflow=hidden;rounded=0;" vertex="1" parent="1">
          <mxGeometry x="-200" y="90" width="190" height="120" as="geometry" />
        </mxCell>
        <mxCell id="H7zgwniXcIy4q0j4ltjJ-16" style="rounded=0;orthogonalLoop=1;jettySize=auto;html=1;endArrow=none;endFill=0;" edge="1" parent="1" source="H7zgwniXcIy4q0j4ltjJ-17" target="BCzQsVzvlVJKyDwNN25u-9">
          <mxGeometry relative="1" as="geometry">
            <mxPoint x="600" y="720" as="targetPoint" />
          </mxGeometry>
        </mxCell>
        <mxCell id="H7zgwniXcIy4q0j4ltjJ-17" value="aplazo" style="ellipse;whiteSpace=wrap;html=1;" vertex="1" parent="1">
          <mxGeometry x="640" y="710" width="80" height="20" as="geometry" />
        </mxCell>
      </root>
    </mxGraphModel>
  </diagram>
</mxfile>
